<svg width="27" height="30" viewBox="0 0 27 30" fill="none" xmlns="http://www.w3.org/2000/svg">
<path d="M4.75 0.416687C5.10719 0.416734 5.45195 0.547873 5.71888 0.78523C5.9858 1.02259 6.15633 1.34965 6.19813 1.7044L6.20833 1.87502V3.43252L25.2702 4.79606C25.6449 4.8226 25.9949 4.99268 26.2473 5.27087C26.4996 5.54906 26.635 5.91391 26.625 6.28939L26.6104 6.45564L25.1521 16.664C25.1067 16.9837 24.9565 17.2792 24.725 17.5044C24.4936 17.7295 24.1939 17.8714 23.8731 17.9079L23.7083 17.9167H6.20833V20.8334H20.7917C21.646 20.8334 22.4817 21.0836 23.1955 21.5531C23.9093 22.0225 24.47 22.6907 24.8085 23.4751C25.1469 24.2596 25.2483 25.126 25.1001 25.9674C24.9519 26.8088 24.5605 27.5883 23.9744 28.2099C23.3882 28.8315 22.6329 29.2678 21.8017 29.4651C20.9704 29.6624 20.0996 29.612 19.2966 29.3201C18.4937 29.0282 17.7938 28.5076 17.2833 27.8225C16.7728 27.1374 16.4741 26.3179 16.424 25.465L16.4167 25.2084L16.424 24.9517C16.4502 24.5307 16.5309 24.1302 16.666 23.75H8.87563C9.08377 24.3404 9.16279 24.9686 9.10735 25.5921C9.05191 26.2157 8.8633 26.8201 8.55426 27.3645C8.24522 27.9089 7.82295 28.3806 7.31597 28.7479C6.80898 29.1151 6.2291 29.3692 5.61548 29.4931C5.00185 29.617 4.36879 29.6078 3.75904 29.4661C3.14928 29.3244 2.57705 29.0534 2.08098 28.6716C1.58491 28.2897 1.17656 27.8059 0.883513 27.2527C0.590465 26.6995 0.419543 26.0899 0.382292 25.465L0.375 25.2084L0.382292 24.9517C0.43238 24.0918 0.735181 23.2658 1.25274 22.5773C1.77029 21.8888 2.47957 21.3684 3.29167 21.0813V3.33335H1.83333C1.47614 3.33331 1.13138 3.20217 0.864458 2.96481C0.597532 2.72745 0.427 2.40039 0.385208 2.04565L0.375 1.87502C0.375047 1.51783 0.506186 1.17307 0.743543 0.906145C0.9809 0.639219 1.30797 0.468687 1.66271 0.426895L1.83333 0.416687H4.75ZM4.75 23.75C4.36323 23.75 3.99229 23.9037 3.7188 24.1772C3.44531 24.4506 3.29167 24.8216 3.29167 25.2084C3.29167 25.5951 3.44531 25.9661 3.7188 26.2396C3.99229 26.513 4.36323 26.6667 4.75 26.6667C5.13677 26.6667 5.50771 26.513 5.7812 26.2396C6.05469 25.9661 6.20833 25.5951 6.20833 25.2084C6.20833 24.8216 6.05469 24.4506 5.7812 24.1772C5.50771 23.9037 5.13677 23.75 4.75 23.75ZM20.7917 23.75C20.4049 23.75 20.034 23.9037 19.7605 24.1772C19.487 24.4506 19.3333 24.8216 19.3333 25.2084C19.3333 25.5951 19.487 25.9661 19.7605 26.2396C20.034 26.513 20.4049 26.6667 20.7917 26.6667C21.1784 26.6667 21.5494 26.513 21.8229 26.2396C22.0964 25.9661 22.25 25.5951 22.25 25.2084C22.25 24.8216 22.0964 24.4506 21.8229 24.1772C21.5494 23.9037 21.1784 23.75 20.7917 23.75Z" fill="black"/>
</svg>
