<svg width="82" height="50" viewBox="0 0 82 50" fill="none" xmlns="http://www.w3.org/2000/svg">
<path d="M22.6042 27.9167H21.4521L21.0438 27.5229C22.5224 25.808 23.3351 23.6185 23.3333 21.3542C23.3333 19.4794 22.7774 17.6467 21.7358 16.0878C20.6942 14.529 19.2138 13.314 17.4817 12.5966C15.7496 11.8791 13.8437 11.6914 12.0049 12.0571C10.1661 12.4229 8.47707 13.3257 7.15139 14.6514C5.8257 15.9771 4.9229 17.6661 4.55714 19.5049C4.19139 21.3437 4.37911 23.2496 5.09656 24.9817C5.81402 26.7138 7.02899 28.1942 8.58783 29.2358C10.1467 30.2774 11.9794 30.8333 13.8542 30.8333C16.2021 30.8333 18.3604 29.9729 20.0229 28.5438L20.4167 28.9521V30.1042L27.7083 37.3813L29.8813 35.2083L22.6042 27.9167ZM13.8542 27.9167C10.2229 27.9167 7.29167 24.9854 7.29167 21.3542C7.29167 17.7229 10.2229 14.7917 13.8542 14.7917C17.4854 14.7917 20.4167 17.7229 20.4167 21.3542C20.4167 24.9854 17.4854 27.9167 13.8542 27.9167Z" fill="black"/>
<path d="M51.75 10.4167C52.1072 10.4167 52.452 10.5479 52.7189 10.7852C52.9858 11.0226 53.1563 11.3497 53.1981 11.7044L53.2083 11.875V13.4325L72.2702 14.7961C72.6449 14.8226 72.9949 14.9927 73.2473 15.2709C73.4996 15.5491 73.635 15.9139 73.625 16.2894L73.6104 16.4556L72.1521 26.664C72.1067 26.9837 71.9565 27.2792 71.725 27.5044C71.4936 27.7295 71.1939 27.8714 70.8731 27.9079L70.7083 27.9167H53.2083V30.8334H67.7917C68.646 30.8334 69.4817 31.0836 70.1955 31.5531C70.9093 32.0225 71.47 32.6907 71.8085 33.4751C72.1469 34.2596 72.2483 35.126 72.1001 35.9674C71.9519 36.8088 71.5605 37.5883 70.9744 38.2099C70.3882 38.8315 69.6329 39.2678 68.8017 39.4651C67.9704 39.6624 67.0996 39.612 66.2966 39.3201C65.4937 39.0282 64.7938 38.5076 64.2833 37.8225C63.7728 37.1374 63.4741 36.3179 63.424 35.465L63.4167 35.2084L63.424 34.9517C63.4502 34.5307 63.5309 34.1302 63.666 33.75H55.8756C56.0838 34.3404 56.1628 34.9686 56.1073 35.5921C56.0519 36.2157 55.8633 36.8201 55.5543 37.3645C55.2452 37.9089 54.8229 38.3806 54.316 38.7479C53.809 39.1151 53.2291 39.3692 52.6155 39.4931C52.0019 39.617 51.3688 39.6078 50.759 39.4661C50.1493 39.3244 49.577 39.0534 49.081 38.6716C48.5849 38.2897 48.1766 37.8059 47.8835 37.2527C47.5905 36.6995 47.4195 36.0899 47.3823 35.465L47.375 35.2084L47.3823 34.9517C47.4324 34.0918 47.7352 33.2658 48.2527 32.5773C48.7703 31.8888 49.4796 31.3684 50.2917 31.0813V13.3334H48.8333C48.4761 13.3333 48.1314 13.2022 47.8645 12.9648C47.5975 12.7275 47.427 12.4004 47.3852 12.0456L47.375 11.875C47.375 11.5178 47.5062 11.1731 47.7435 10.9061C47.9809 10.6392 48.308 10.4687 48.6627 10.4269L48.8333 10.4167H51.75ZM51.75 33.75C51.3632 33.75 50.9923 33.9037 50.7188 34.1772C50.4453 34.4506 50.2917 34.8216 50.2917 35.2084C50.2917 35.5951 50.4453 35.9661 50.7188 36.2396C50.9923 36.513 51.3632 36.6667 51.75 36.6667C52.1368 36.6667 52.5077 36.513 52.7812 36.2396C53.0547 35.9661 53.2083 35.5951 53.2083 35.2084C53.2083 34.8216 53.0547 34.4506 52.7812 34.1772C52.5077 33.9037 52.1368 33.75 51.75 33.75ZM67.7917 33.75C67.4049 33.75 67.034 33.9037 66.7605 34.1772C66.487 34.4506 66.3333 34.8216 66.3333 35.2084C66.3333 35.5951 66.487 35.9661 66.7605 36.2396C67.034 36.513 67.4049 36.6667 67.7917 36.6667C68.1784 36.6667 68.5494 36.513 68.8229 36.2396C69.0964 35.9661 69.25 35.5951 69.25 35.2084C69.25 34.8216 69.0964 34.4506 68.8229 34.1772C68.5494 33.9037 68.1784 33.75 67.7917 33.75Z" fill="black"/>
</svg>
