<svg width="26" height="27" viewBox="0 0 26 27" fill="none" xmlns="http://www.w3.org/2000/svg">
<path d="M18.6042 16.9167H17.4521L17.0438 16.5229C18.5224 14.808 19.3351 12.6185 19.3333 10.3542C19.3333 8.47937 18.7774 6.64667 17.7358 5.08783C16.6942 3.52899 15.2138 2.31402 13.4817 1.59656C11.7496 0.879107 9.84365 0.691388 8.00488 1.05714C6.1661 1.4229 4.47707 2.3257 3.15139 3.65139C1.8257 4.97707 0.9229 6.6661 0.557144 8.50488C0.191388 10.3437 0.379107 12.2496 1.09656 13.9817C1.81402 15.7138 3.02899 17.1942 4.58783 18.2358C6.14667 19.2774 7.97937 19.8333 9.85417 19.8333C12.2021 19.8333 14.3604 18.9729 16.0229 17.5438L16.4167 17.9521V19.1042L23.7083 26.3813L25.8813 24.2083L18.6042 16.9167ZM9.85417 16.9167C6.22292 16.9167 3.29167 13.9854 3.29167 10.3542C3.29167 6.72292 6.22292 3.79167 9.85417 3.79167C13.4854 3.79167 16.4167 6.72292 16.4167 10.3542C16.4167 13.9854 13.4854 16.9167 9.85417 16.9167Z" fill="black"/>
</svg>
